Coordinates
version=1
nRows=4
nColumns=63
inDegrees=yes

Units are S.I. units (second, meters, Newtons, ...)
If the header above contains a line with 'inDegrees', this indicates whether rotational values are in degrees (yes) or radians (no).

endheader
time	pelvis_tilt	pelvis_list	pelvis_rotation	pelvis_tx	pelvis_ty	pelvis_tz	hip_flexion_r	hip_adduction_r	hip_rotation_r	knee_angle_r	knee_angle_r_beta	ankle_angle_r	subtalar_angle_r	mtp_angle_r	hip_flexion_l	hip_adduction_l	hip_rotation_l	knee_angle_l	knee_angle_l_beta	ankle_angle_l	subtalar_angle_l	mtp_angle_l	L5_S1_Flex_Ext	L5_S1_Lat_Bending	L5_S1_axial_rotation	L4_L5_Flex_Ext	L4_L5_Lat_Bending	L4_L5_axial_rotation	L3_L4_Flex_Ext	L3_L4_Lat_Bending	L3_L4_axial_rotation	L2_L3_Flex_Ext	L2_L3_Lat_Bending	L2_L3_axial_rotation	L1_L2_Flex_Ext	L1_L2_Lat_Bending	L1_L2_axial_rotation	L1_T12_Flex_Ext	L1_T12_Lat_Bending	L1_T12_axial_rotation	Abs_r3	Abs_r2	Abs_r1	Abs_t1	Abs_t2	neck_flexion	neck_bending	neck_rotation	arm_flex_r	arm_add_r	arm_rot_r	elbow_flex_r	pro_sup_r	wrist_flex_r	wrist_dev_r	arm_flex_l	arm_add_l	arm_rot_l	elbow_flex_l	pro_sup_l	wrist_flex_l	wrist_dev_l
      4.41666667	     -1.47379430	     -7.32991667	     91.43166341	      0.15837359	      0.97800625	      0.49984500	      0.28548477	     -2.19467547	    -11.78795181	      7.88560747	      0.13762981	     32.73282149	     16.98052114	      0.00000000	      1.82430102	      2.57212054	    -11.65672147	     11.23273184	      0.19604815	     32.25186728	      4.89215094	      0.00000000	      0.27672742	      0.03819549	     -0.78874532	      0.51391049	      0.05080000	     -0.83804191	      0.45463547	      0.09286851	     -0.83804191	      0.31627176	      0.09286851	     -0.69015216	      0.25696908	      0.07788824	     -0.64085557	      0.15812205	      0.05916481	     -0.59155899	      1.97663627	      0.43207501	     -4.38676486	      0.00000000	      0.00000000	     15.04991541	      8.32207235	      8.38224984	     17.91158558	    -10.52292292	     56.01100409	     73.15467399	      0.87524224	    -40.01932951	     28.97090892	     24.87025987	    -16.74229186	     84.72282345	     65.28784841	     29.71674572	     -4.78542646	     -0.80387939
      4.43333333	     -1.50115592	     -7.32941913	     91.11762271	      0.15944135	      0.97764998	      0.49906138	      0.28354783	     -2.15549661	    -11.38828034	      7.86836062	      0.13732880	     32.69893717	     16.82299633	      0.00000000	      1.67245066	      2.49920563	    -12.68482012	     11.14310152	      0.19448381	     32.48752633	      6.05521020	      0.00000000	      0.27555935	      0.03386954	     -0.74494310	      0.51174127	      0.04504649	     -0.79150205	      0.45271646	      0.08235040	     -0.79150205	      0.31493678	      0.08235040	     -0.65182521	      0.25588441	      0.06906677	     -0.60526627	      0.15745461	      0.05246392	     -0.55870733	      1.96829288	      0.38313904	     -4.14315005	      0.00000000	      0.00000000	     15.89446344	      8.56013159	      7.70455528	     17.38300164	    -11.02710728	     55.77411887	     72.86163900	      0.85205294	    -45.36821330	     29.77518264	     24.25578462	    -16.75575918	     83.24660607	     65.59225849	     44.24217098	     -8.59326526	      0.34419973
      4.45000000	     -1.51432607	     -7.25438113	     90.75361416	      0.16039644	      0.97736347	      0.49820907	      0.19772227	     -2.11016258	    -11.01414083	      7.82962221	      0.13665269	     32.69561050	     16.77452328	      0.00000000	      1.41840576	      2.51827867	    -12.86453779	     10.91907361	      0.19057379	     32.65606712	      6.16423325	      0.00000000	      0.27017197	      0.03191133	     -0.68897175	      0.50173636	      0.04244207	     -0.73203248	      0.44386552	      0.07758921	     -0.73203248	      0.30877954	      0.07758921	     -0.60285028	      0.25088169	      0.06507359	     -0.55978954	      0.15437626	      0.04943065	     -0.51672881	      1.92981134	      0.36098736	     -3.83185417	      0.00000000	      0.00000000	     16.50760900	      8.62548668	      6.79549935	     17.13183634	    -11.57864016	     56.41183455	     72.21509408	      0.87488308	    -49.18525821	     30.71598350	     23.61606842	    -16.77112192	     81.62851345	     65.84091702	     63.82566959	    -11.01953766	      2.99501190
      4.46666667	     -1.56361189	     -7.11592970	     90.46118213	      0.16104699	      0.97716527	      0.49733352	      0.02332162	     -2.11856233	    -10.78060807	      7.76248340	      0.13548089	     32.78986498	     16.82783720	      0.00000000	      1.09895450	      2.63022274	    -12.59673653	     10.62251866	      0.18539793	     32.83315226	      5.92426067	      0.00000000	      0.25921449	      0.02659902	     -0.63877673	      0.48138722	      0.03537669	     -0.67870027	      0.42586348	      0.06467285	     -0.67870027	      0.29625624	      0.06467285	     -0.55892963	      0.24070657	      0.05424072	     -0.51900609	      0.14811516	      0.04120188	     -0.47908254	      1.85154316	      0.30089341	     -3.55268452	      0.00000000	      0.00000000	     16.87328290	      8.67152864	      5.82716824	     17.16609169	    -12.18597141	     57.87066605	     71.53692175	      0.90359714	    -50.93475607	     31.19800045	     23.14459998	    -16.84684226	     80.65152088	     66.53517115	     80.70679962	    -11.50895298	      6.73846875
